<svg version="1.1" id="Layer_1" xmlns="http://www.w3.org/2000/svg" xmlns:xlink="http://www.w3.org/1999/xlink" x="0px" y="0px"
	 width="100%" viewBox="0 0 559 396" enable-background="new 0 0 559 396" xml:space="preserve">
<path fill="#FBF7E3" opacity="1.000000" stroke="none" 
	d="
M301.000000,397.000000 
	C200.666672,397.000000 100.833336,397.000000 1.000000,397.000000 
	C1.000000,265.000000 1.000000,133.000000 1.000000,1.000000 
	C187.333328,1.000000 373.666656,1.000000 560.000000,1.000000 
	C560.000000,133.000000 560.000000,265.000000 560.000000,397.000000 
	C473.833344,397.000000 387.666656,397.000000 301.000000,397.000000 
M123.538879,241.061264 
	C125.651520,240.042618 127.764168,239.023972 130.030685,238.930832 
	C130.030685,247.862350 130.030685,256.793854 130.030685,265.721222 
	C133.742828,265.721222 136.820786,265.721222 140.340149,265.721222 
	C140.340149,258.023468 140.340149,250.606201 140.340149,243.203674 
	C143.854797,243.203674 146.912125,243.203674 150.395325,243.203674 
	C150.395325,250.982758 150.395325,258.401886 150.395325,265.694977 
	C153.912750,265.694977 156.989853,265.694977 160.253586,265.694977 
	C160.253586,251.239258 160.412735,237.097763 160.196594,222.961975 
	C160.056931,213.829361 159.773956,204.661316 158.795532,195.591095 
	C158.018921,188.391846 153.415176,184.940491 146.225037,184.693939 
	C136.669235,184.366302 131.740540,188.601929 131.053635,199.081757 
	C130.248917,211.358887 130.234238,223.687820 129.123108,235.780273 
	C128.755447,235.097610 128.108093,234.432617 128.063690,233.729553 
	C127.649559,227.170929 127.704285,220.556534 126.829430,214.065277 
	C126.447044,211.228119 124.223984,208.639053 122.938461,205.069550 
	C122.294586,200.977600 121.981140,196.798325 120.928284,192.814453 
	C119.402443,187.040833 115.674561,184.582413 109.441628,184.470901 
	C103.072464,184.356934 98.851692,186.913086 97.177284,192.518234 
	C96.187012,195.833267 95.490433,199.365631 95.444687,202.810669 
	C95.250191,217.458710 95.243828,232.111862 95.413383,246.760315 
	C95.455269,250.379166 96.160095,254.048752 97.009354,257.587219 
	C98.582977,264.143768 102.372208,266.898773 109.199265,266.951111 
	C115.489845,266.999329 119.559479,264.161011 121.122360,257.788513 
	C122.225006,253.292633 122.510452,248.596359 123.430611,243.797836 
	C123.614944,243.465744 123.526680,243.203461 123.013741,242.381439 
	C122.912132,241.961884 122.810516,241.542313 123.538879,241.061264 
M258.733185,119.876228 
	C258.543365,119.894157 258.353577,119.912079 257.394806,120.128319 
	C257.433319,123.614014 256.270782,127.767929 257.760803,130.446075 
	C260.847748,135.994431 266.982727,137.084030 272.708984,135.786652 
	C277.677277,134.660980 283.165283,132.889267 284.524506,126.796562 
	C285.572876,122.097054 288.252136,119.997353 292.873383,119.957535 
	C297.762268,119.915413 301.469269,122.106178 302.748657,126.755791 
	C303.898712,130.935501 304.274841,135.555191 298.847900,137.606186 
	C294.685547,139.179260 290.495880,141.612259 286.231323,141.812759 
	C271.793518,142.491623 257.317291,142.384781 242.855148,142.505646 
	C232.038467,142.596039 221.220581,142.544769 210.404037,142.643768 
	C209.169556,142.655060 207.940247,143.229126 206.708542,143.542252 
	C206.772980,143.993912 206.837402,144.445572 206.901840,144.897232 
	C228.027603,145.605133 249.153351,146.313049 270.279114,147.020966 
	C270.293823,147.370834 270.308563,147.720688 270.323303,148.070541 
	C257.262054,149.586456 244.200790,151.102386 231.139542,152.618301 
	C231.212601,153.110840 231.285660,153.603378 231.358734,154.095917 
	C252.604874,154.204361 273.566254,151.941101 294.194397,146.231247 
	C282.723328,154.938354 269.318329,158.485886 255.339951,161.530289 
	C257.327423,162.790512 259.465149,163.718018 261.284271,163.290359 
	C269.475861,161.364471 277.746796,159.534927 285.660889,156.740997 
	C292.893951,154.187500 299.399872,150.047928 304.019196,143.535782 
	C313.389435,130.326004 307.945526,116.910835 292.245544,114.565437 
	C292.059540,114.537636 291.937958,114.078354 291.796326,113.814598 
	C298.253876,110.113487 308.617584,110.279182 313.785980,115.011467 
	C324.923279,125.209076 322.335632,136.547440 314.709106,148.579315 
	C322.645844,143.603607 325.994507,131.247757 322.852814,121.558968 
	C319.765594,112.038338 310.788086,106.089752 300.221619,107.712929 
	C295.172333,108.488564 290.168518,110.771660 285.616028,113.241768 
	C280.688416,115.915382 278.646240,120.840805 278.800537,126.659576 
	C270.796906,121.328842 270.089508,113.265038 276.704407,105.664894 
	C284.700409,96.477898 295.190948,96.392319 306.058838,97.672127 
	C326.808350,100.115578 341.807678,120.349274 334.330566,137.654968 
	C333.976837,138.473587 334.934845,139.858948 335.281952,140.980408 
	C336.234924,140.234222 337.816681,139.636322 338.033569,138.716553 
	C339.050262,134.405533 340.946106,129.771622 340.184113,125.690689 
	C338.914764,118.892426 335.856506,112.428177 333.470703,105.591751 
	C335.223114,106.519447 338.069275,107.292961 339.837524,109.113464 
	C343.626892,113.014755 346.787964,117.518845 350.362457,121.640671 
	C351.476288,122.925056 353.091736,123.774452 354.477539,124.822983 
	C354.221649,123.035072 354.453308,120.974442 353.630554,119.503670 
	C348.410706,110.172745 340.923309,103.360985 330.587463,100.071999 
	C324.275360,98.063408 317.985168,95.863586 311.531738,94.449669 
	C301.312500,92.210655 290.954254,91.662102 281.443390,97.059189 
	C277.179077,99.479057 273.312897,101.946617 268.190674,102.819450 
	C261.236481,104.004448 258.775909,109.699203 258.733185,119.876228 
M296.992432,196.252304 
	C294.208038,209.215820 291.423615,222.179321 288.639221,235.142822 
	C288.274384,235.125626 287.909515,235.108444 287.544678,235.091248 
	C284.049896,218.632202 280.555145,202.173172 277.064667,185.734344 
	C273.889709,185.734344 271.129944,185.734344 268.246826,185.734344 
	C268.246826,212.559280 268.246826,239.109314 268.246826,265.734558 
	C271.569977,265.734558 274.632843,265.734558 278.112183,265.734558 
	C278.112183,254.184509 278.112183,242.900162 278.112183,231.615814 
	C278.403015,231.590256 278.693817,231.564682 278.984650,231.539124 
	C281.008545,243.016113 283.032471,254.493088 285.016022,265.741028 
	C287.404480,265.741028 289.169739,265.741028 291.021423,265.741028 
	C293.117981,254.187851 295.171356,242.872696 297.224731,231.557556 
	C297.575958,231.592499 297.927155,231.627441 298.278381,231.662399 
	C298.278381,243.061203 298.278381,254.460022 298.278381,265.655121 
	C301.875977,265.655121 304.955261,265.655121 307.962158,265.655121 
	C307.962158,238.872284 307.962158,212.440598 307.962158,185.730255 
	C304.977142,185.730255 302.205933,185.730255 299.168213,185.730255 
	C298.487885,188.929657 297.798462,192.171906 296.992432,196.252304 
M229.429047,261.209167 
	C229.664047,262.772827 229.899063,264.336517 230.091537,265.617188 
	C233.614853,265.617188 236.673798,265.617188 240.136688,265.617188 
	C237.593826,251.581223 239.212082,237.393250 234.180267,223.494980 
	C238.637482,214.853928 238.784561,204.839203 236.715790,194.752014 
	C235.817200,190.370560 233.161087,186.434937 228.215836,186.101212 
	C221.511810,185.648804 214.754333,185.988632 207.914429,185.988632 
	C207.914429,212.652557 207.914429,239.195724 207.914429,265.685333 
	C211.258820,265.685333 214.332840,265.685333 217.866562,265.685333 
	C217.866562,252.962326 217.866562,240.563141 217.866562,228.226456 
	C225.505188,227.461792 227.210251,228.710449 227.814850,235.884659 
	C228.498932,244.001892 228.881836,252.144485 229.429047,261.209167 
M457.070740,206.489105 
	C457.070740,210.761856 457.070740,215.034592 457.070740,219.380356 
	C453.411438,219.380356 450.349243,219.380356 446.855225,219.380356 
	C446.855225,207.989639 446.855225,196.912979 446.855225,185.819733 
	C443.344818,185.819733 440.282257,185.819733 437.332794,185.819733 
	C437.332794,212.725922 437.332794,239.284027 437.332794,265.640472 
	C440.748840,265.640472 443.811462,265.640472 447.250977,265.640472 
	C447.250977,252.858643 447.250977,240.438522 447.250977,228.195465 
	C450.721802,228.195465 453.786530,228.195465 457.265747,228.195465 
	C457.265747,240.958069 457.265747,253.366165 457.265747,265.634308 
	C460.763947,265.634308 463.821167,265.634308 466.795654,265.634308 
	C466.795654,238.836472 466.795654,212.406250 466.795654,185.775681 
	C463.510803,185.775681 460.438049,185.775681 457.071075,185.775681 
	C457.071075,192.541718 457.071075,199.017639 457.070740,206.489105 
M180.587662,258.387848 
	C180.587662,249.647644 180.587662,240.907455 180.587662,232.073608 
	C183.590668,231.912323 185.893631,231.739868 188.199661,231.674438 
	C193.823273,231.514893 197.334183,228.277283 198.694214,223.284348 
	C201.404144,213.335678 201.393036,203.244171 198.467285,193.283142 
	C197.241806,189.110809 194.414093,186.102692 190.030670,185.834183 
	C183.620178,185.441498 177.167755,185.733185 170.487717,185.733185 
	C170.487717,212.492783 170.487717,239.022018 170.487717,265.658905 
	C173.932938,265.658905 177.117676,265.658905 180.587875,265.658905 
	C180.587875,263.308075 180.587875,261.330078 180.587662,258.387848 
M418.790527,184.739059 
	C408.507111,183.933090 403.507660,187.000198 403.090393,197.326340 
	C402.326080,216.241837 402.885437,235.214096 403.082092,254.160721 
	C403.105164,256.384277 404.094147,258.695129 405.025146,260.792450 
	C407.226532,265.751495 411.586609,267.041443 416.541412,266.918823 
	C421.192078,266.803711 425.486237,265.248169 426.831329,260.529266 
	C428.567871,254.437073 429.360016,248.075668 430.592468,241.655212 
	C426.413605,241.655212 423.523254,241.655212 420.752563,241.655212 
	C420.207642,245.964844 419.938477,249.948380 419.079010,253.800201 
	C418.809021,255.010040 416.923431,256.697723 415.830231,256.659332 
	C414.639923,256.617523 413.213928,255.003128 412.448303,253.737091 
	C411.819580,252.697495 411.878021,251.166382 411.853760,249.849045 
	C411.626892,237.535751 411.357788,225.222015 411.298981,212.907455 
	C411.275208,207.921417 411.440338,202.890732 412.134796,197.967133 
	C412.401764,196.074402 414.381134,194.423187 415.580261,192.661942 
	C416.996246,194.414154 418.974365,195.967468 419.682922,197.970001 
	C420.527893,200.357803 420.284698,203.130661 420.508057,205.681244 
	C423.815552,205.681244 426.729919,205.681244 430.121002,205.681244 
	C429.371094,201.218231 428.962799,197.080261 427.929688,193.104660 
	C426.826843,188.860825 424.259186,185.668640 418.790527,184.739059 
M386.462158,266.012726 
	C389.540588,266.012726 392.619049,266.012726 395.614899,266.012726 
	C395.614899,262.277435 395.614899,259.334167 395.614899,255.877502 
	C391.326691,255.877502 387.254669,255.877502 383.155396,255.877502 
	C383.155396,246.291718 383.155396,237.233749 383.155396,227.591644 
	C386.848206,227.591644 390.231903,227.591644 393.681030,227.591644 
	C393.681030,224.702927 393.681030,222.407700 393.681030,219.615891 
	C390.093964,219.615891 386.680054,219.615891 383.138580,219.615891 
	C383.138580,210.706360 383.138580,202.297089 383.138580,193.324219 
	C387.495850,193.324219 391.550598,193.324219 395.597229,193.324219 
	C395.597229,190.485336 395.597229,188.216827 395.597229,185.702576 
	C387.944580,185.702576 380.540955,185.702576 372.884338,185.702576 
	C372.884338,212.525620 372.884338,239.092468 372.884338,266.012634 
	C377.205719,266.012634 381.343811,266.012634 386.462158,266.012726 
M338.091370,185.415161 
	C337.270508,188.206406 336.449677,190.997650 335.484955,194.278137 
	C339.902924,194.540680 342.967560,194.722794 346.432556,194.928711 
	C346.432556,218.742203 346.432556,242.159027 346.432556,265.808807 
	C349.948181,265.808807 353.029266,265.808807 356.698303,265.808807 
	C356.698303,242.078323 356.698303,218.534424 356.698303,194.439087 
	C360.356903,194.439087 363.432220,194.439087 366.532837,194.439087 
	C366.532837,191.263077 366.532837,188.650650 366.532837,185.392731 
	C357.202118,185.392731 348.093811,185.392731 338.091370,185.415161 
M257.720673,186.126114 
	C254.552979,185.862503 251.385300,185.598892 248.231110,185.336395 
	C248.231110,212.714706 248.231110,239.242828 248.231110,265.656036 
	C251.617325,265.656036 254.676514,265.656036 257.913666,265.656036 
	C257.913666,239.207947 257.913666,213.110367 257.720673,186.126114 
M208.963211,294.616333 
	C208.963211,297.701050 208.963211,300.785767 208.963211,303.870514 
	C209.490784,304.004120 210.018341,304.137726 210.545914,304.271332 
	C211.213852,302.588623 211.881790,300.905914 212.556000,299.207428 
	C213.970779,300.976532 215.375320,302.732849 217.595993,305.509674 
	C217.595993,298.701630 217.595993,293.723053 217.595993,288.744446 
	C217.074310,288.650513 216.552612,288.556580 216.030930,288.462646 
	C215.577744,290.581329 215.124557,292.700012 214.643066,294.950989 
	C213.143753,292.641937 211.778473,290.539276 210.413193,288.436646 
	C209.929779,288.706665 209.446350,288.976685 208.962936,289.246704 
	C208.962936,290.724518 208.962936,292.202362 208.963211,294.616333 
M182.962875,302.107452 
	C183.488663,302.721985 184.014450,303.336487 184.540222,303.950989 
	C185.154739,302.129730 185.769257,300.308502 186.340118,298.616638 
	C187.724548,300.423798 189.259033,302.426849 190.793518,304.429871 
	C191.129501,304.156158 191.465469,303.882446 191.801453,303.608734 
	C191.801453,298.689575 191.801453,293.770386 191.801453,288.851227 
	C191.275940,288.716003 190.750427,288.580780 190.224930,288.445526 
	C189.678772,290.556946 189.132629,292.668365 188.564575,294.864471 
	C187.156677,292.618134 185.839920,290.517212 184.523163,288.416260 
	C184.003815,288.612152 183.484482,288.808044 182.965149,289.003937 
	C182.965149,293.064178 182.965149,297.124390 182.962875,302.107452 
M369.748779,289.048157 
	C366.566254,288.240570 363.434814,289.239075 363.053925,292.298523 
	C362.624908,295.744415 363.108276,299.820129 364.683960,302.846527 
	C366.108063,305.581665 371.457733,304.222687 372.973877,301.254669 
	C375.054596,297.181427 374.101318,292.648926 369.748779,289.048157 
M244.290131,302.991211 
	C244.838806,299.413452 246.208282,295.717041 245.712738,292.290283 
	C245.183258,288.628876 239.934097,287.480103 237.294754,290.062042 
	C234.149292,293.139069 234.404556,296.990082 235.825775,300.740692 
	C237.282394,304.584747 240.293137,304.657349 244.290131,302.991211 
M292.470123,296.848053 
	C291.988495,299.155396 291.506866,301.462738 291.190460,302.978577 
	C294.525909,303.143707 297.164642,303.274353 300.037018,303.416565 
	C299.617615,301.050079 299.382568,298.408905 298.642365,295.917847 
	C297.904816,293.435944 296.660431,291.104645 295.638275,288.707336 
	C294.670166,291.163818 293.702087,293.620331 292.470123,296.848053 
M270.629089,291.299438 
	C270.112427,292.948486 269.595764,294.597565 268.937531,296.698486 
	C267.563782,293.547699 266.460205,291.016571 265.356628,288.485443 
	C264.797089,288.752594 264.237549,289.019745 263.678009,289.286896 
	C264.738495,293.566803 265.738129,297.863617 266.917328,302.110535 
	C267.122253,302.848633 268.078827,303.861359 268.700653,303.870178 
	C269.379822,303.879791 270.496399,302.987732 270.691650,302.285522 
	C271.909698,297.904633 272.923126,293.466827 274.004303,289.047913 
	C273.662537,288.815826 273.320740,288.583740 272.978973,288.351654 
	C272.247131,289.087494 271.515320,289.823334 270.629089,291.299438 
M393.013550,301.607056 
	C393.142517,300.227692 393.271454,298.848328 393.441833,297.025574 
	C395.389557,299.859924 396.960846,302.146515 398.532104,304.433105 
	C398.887939,304.153412 399.243744,303.873749 399.599548,303.594055 
	C399.599548,298.703003 399.599548,293.811951 399.599548,288.485260 
	C394.969360,289.890442 398.223053,293.789551 396.375061,296.011017 
	C394.962524,293.532349 393.596771,291.135742 392.231018,288.739105 
	C391.816620,288.815704 391.402191,288.892273 390.987762,288.968872 
	C390.987762,293.659027 390.987762,298.349152 390.987762,303.039276 
	C391.655670,302.846588 392.323547,302.653900 393.013550,301.607056 
M319.941803,297.592834 
	C320.042725,299.745819 320.143616,301.898804 320.244507,304.051788 
	C320.774292,304.085175 321.304047,304.118530 321.833801,304.151917 
	C322.580353,299.164978 323.326874,294.178009 324.151703,288.667877 
	C322.417999,288.758362 319.822388,288.893799 318.097870,288.983795 
	C318.817139,291.985992 319.379333,294.332642 319.941803,297.592834 
M342.089081,296.539795 
	C342.253540,303.001465 342.253540,303.001465 344.838135,303.752167 
	C344.838135,298.721130 344.838135,293.723663 344.838135,288.726227 
	C344.226715,288.670746 343.615326,288.615295 343.003906,288.559845 
	C342.699890,290.916168 342.395844,293.272461 342.089081,296.539795 
M166.020142,301.220764 
	C165.895172,297.035767 165.770203,292.850739 165.645218,288.665741 
	C164.844345,288.678284 164.043457,288.690857 163.242584,288.703430 
	C163.242584,293.552490 163.242584,298.401550 163.242584,303.250610 
	C164.166885,302.886169 165.091202,302.521729 166.020142,301.220764 
z"/>
<path fill="#413F3A" opacity="1.000000" stroke="none" 
	d="
M259.293518,119.990738 
	C258.775909,109.699203 261.236481,104.004448 268.190674,102.819450 
	C273.312897,101.946617 277.179077,99.479057 281.443390,97.059189 
	C290.954254,91.662102 301.312500,92.210655 311.531738,94.449669 
	C317.985168,95.863586 324.275360,98.063408 330.587463,100.071999 
	C340.923309,103.360985 348.410706,110.172745 353.630554,119.503670 
	C354.453308,120.974442 354.221649,123.035072 354.477539,124.822983 
	C353.091736,123.774452 351.476288,122.925056 350.362457,121.640671 
	C346.787964,117.518845 343.626892,113.014755 339.837524,109.113464 
	C338.069275,107.292961 335.223114,106.519447 333.470703,105.591751 
	C335.856506,112.428177 338.914764,118.892426 340.184113,125.690689 
	C340.946106,129.771622 339.050262,134.405533 338.033569,138.716553 
	C337.816681,139.636322 336.234924,140.234222 335.281982,140.980408 
	C334.934845,139.858948 333.976837,138.473587 334.330566,137.654968 
	C341.807678,120.349274 326.808350,100.115578 306.058838,97.672127 
	C295.190948,96.392319 284.700409,96.477898 276.704407,105.664894 
	C270.089508,113.265038 270.796906,121.328842 278.800537,126.659576 
	C278.646240,120.840805 280.688416,115.915382 285.616028,113.241768 
	C290.168518,110.771660 295.172333,108.488564 300.221619,107.712929 
	C310.788086,106.089752 319.765594,112.038338 322.852814,121.558968 
	C325.994507,131.247757 322.645844,143.603607 314.709106,148.579315 
	C322.335632,136.547440 324.923279,125.209076 313.785980,115.011467 
	C308.617584,110.279182 298.253876,110.113487 291.791321,113.817535 
	C291.937958,114.078354 292.059540,114.537636 292.245544,114.565437 
	C307.945526,116.910835 313.389435,130.326004 304.019196,143.535782 
	C299.399872,150.047928 292.893951,154.187500 285.660889,156.740997 
	C277.746796,159.534927 269.475861,161.364471 261.284271,163.290359 
	C259.465149,163.718018 257.327423,162.790512 255.339951,161.530289 
	C269.318329,158.485886 282.723328,154.938354 294.194397,146.231247 
	C273.566254,151.941101 252.604874,154.204361 231.358734,154.095917 
	C231.285660,153.603378 231.212601,153.110840 231.139542,152.618301 
	C244.200790,151.102386 257.262054,149.586456 270.323303,148.070541 
	C270.308563,147.720688 270.293823,147.370834 270.279114,147.020966 
	C249.153351,146.313049 228.027603,145.605133 206.901840,144.897232 
	C206.837402,144.445572 206.772980,143.993912 206.708542,143.542252 
	C207.940247,143.229126 209.169556,142.655060 210.404037,142.643768 
	C221.220581,142.544769 232.038467,142.596039 242.855148,142.505646 
	C257.317291,142.384781 271.793518,142.491623 286.231323,141.812759 
	C290.495880,141.612259 294.685547,139.179260 298.847900,137.606186 
	C304.274841,135.555191 303.898712,130.935501 302.748657,126.755791 
	C301.469269,122.106178 297.762268,119.915413 292.873383,119.957535 
	C288.252136,119.997353 285.572876,122.097054 284.524506,126.796562 
	C283.165283,132.889267 277.677277,134.660980 272.708984,135.786652 
	C266.982727,137.084030 260.847748,135.994431 257.760803,130.446075 
	C256.270782,127.767929 257.433319,123.614014 257.986389,120.423645 
	C257.259247,128.804779 261.626587,133.389313 268.558044,132.836563 
	C265.750000,128.943069 262.521759,124.466904 259.293518,119.990738 
M271.173126,106.929947 
	C271.664307,106.116158 272.155487,105.302368 272.710846,104.382217 
	C265.930054,104.706169 262.629578,107.601517 262.316803,113.314957 
	C261.892609,121.063858 266.899200,127.840736 274.320129,128.759262 
	C267.691132,122.323639 266.475891,115.322067 271.173126,106.929947 
z"/>
<path fill="#363634" opacity="1.000000" stroke="none" 
	d="
M297.050720,195.833237 
	C297.798462,192.171906 298.487885,188.929657 299.168213,185.730255 
	C302.205933,185.730255 304.977142,185.730255 307.962158,185.730255 
	C307.962158,212.440598 307.962158,238.872284 307.962158,265.655121 
	C304.955261,265.655121 301.875977,265.655121 298.278381,265.655121 
	C298.278381,254.460022 298.278381,243.061203 298.278381,231.662399 
	C297.927155,231.627441 297.575958,231.592499 297.224731,231.557556 
	C295.171356,242.872696 293.117981,254.187851 291.021423,265.741028 
	C289.169739,265.741028 287.404480,265.741028 285.016022,265.741028 
	C283.032471,254.493088 281.008545,243.016113 278.984650,231.539124 
	C278.693817,231.564682 278.403015,231.590256 278.112183,231.615814 
	C278.112183,242.900162 278.112183,254.184509 278.112183,265.734558 
	C274.632843,265.734558 271.569977,265.734558 268.246826,265.734558 
	C268.246826,239.109314 268.246826,212.559280 268.246826,185.734344 
	C271.129944,185.734344 273.889709,185.734344 277.064667,185.734344 
	C280.555145,202.173172 284.049896,218.632202 287.544678,235.091248 
	C287.909515,235.108444 288.274384,235.125626 288.639221,235.142822 
	C291.423615,222.179321 294.208038,209.215820 297.050720,195.833237 
z"/>
<path fill="#3A3A37" opacity="1.000000" stroke="none" 
	d="
M229.412384,260.742615 
	C228.881836,252.144485 228.498932,244.001892 227.814850,235.884659 
	C227.210251,228.710449 225.505188,227.461792 217.866562,228.226456 
	C217.866562,240.563141 217.866562,252.962326 217.866562,265.685333 
	C214.332840,265.685333 211.258820,265.685333 207.914429,265.685333 
	C207.914429,239.195724 207.914429,212.652557 207.914429,185.988632 
	C214.754333,185.988632 221.511810,185.648804 228.215836,186.101212 
	C233.161087,186.434937 235.817200,190.370560 236.715790,194.752014 
	C238.784561,204.839203 238.637482,214.853928 234.180267,223.494980 
	C239.212082,237.393250 237.593826,251.581223 240.136688,265.617188 
	C236.673798,265.617188 233.614853,265.617188 230.091537,265.617188 
	C229.899063,264.336517 229.664047,262.772827 229.412384,260.742615 
M222.105148,219.685837 
	C226.282837,219.984863 227.712265,217.363022 227.948227,213.860779 
	C228.216064,209.885651 228.330032,205.886017 228.235687,201.903564 
	C228.043243,193.780075 226.426880,192.603485 217.717667,194.233810 
	C217.717667,201.763687 217.595383,209.383148 217.873459,216.987976 
	C217.907974,217.931961 220.068863,218.798218 222.105148,219.685837 
z"/>
<path fill="#373734" opacity="1.000000" stroke="none" 
	d="
M129.876877,235.994278 
	C130.234238,223.687820 130.248917,211.358887 131.053635,199.081757 
	C131.740540,188.601929 136.669235,184.366302 146.225037,184.693939 
	C153.415176,184.940491 158.018921,188.391846 158.795532,195.591095 
	C159.773956,204.661316 160.056931,213.829361 160.196594,222.961975 
	C160.412735,237.097763 160.253586,251.239258 160.253586,265.694977 
	C156.989853,265.694977 153.912750,265.694977 150.395325,265.694977 
	C150.395325,258.401886 150.395325,250.982758 150.395325,243.203674 
	C146.912125,243.203674 143.854797,243.203674 140.340149,243.203674 
	C140.340149,250.606201 140.340149,258.023468 140.340149,265.721222 
	C136.820786,265.721222 133.742828,265.721222 130.030685,265.721222 
	C130.030685,256.793854 130.030685,247.862350 130.034912,238.136169 
	C129.985046,236.892426 129.930954,236.443359 129.876877,235.994278 
M150.176559,226.444702 
	C150.045578,217.317596 150.096329,208.182022 149.671921,199.068588 
	C149.546036,196.365448 149.430038,192.556122 144.983063,192.815521 
	C141.061264,193.044281 140.998154,196.352600 140.806183,199.078445 
	C140.421829,204.535706 140.267410,210.014023 140.182434,215.486221 
	C140.083115,221.881851 140.159225,228.280197 140.159225,234.575989 
	C143.880493,234.575989 146.809601,234.575989 150.177109,234.575989 
	C150.177109,232.006042 150.177109,229.714584 150.176559,226.444702 
z"/>
<path fill="#353534" opacity="1.000000" stroke="none" 
	d="
M457.070923,205.991333 
	C457.071075,199.017639 457.071075,192.541718 457.071075,185.775681 
	C460.438049,185.775681 463.510803,185.775681 466.795654,185.775681 
	C466.795654,212.406250 466.795654,238.836472 466.795654,265.634308 
	C463.821167,265.634308 460.763947,265.634308 457.265747,265.634308 
	C457.265747,253.366165 457.265747,240.958069 457.265747,228.195465 
	C453.786530,228.195465 450.721802,228.195465 447.250977,228.195465 
	C447.250977,240.438522 447.250977,252.858643 447.250977,265.640472 
	C443.811462,265.640472 440.748840,265.640472 437.332794,265.640472 
	C437.332794,239.284027 437.332794,212.725922 437.332794,185.819733 
	C440.282257,185.819733 443.344818,185.819733 446.855225,185.819733 
	C446.855225,196.912979 446.855225,207.989639 446.855225,219.380356 
	C450.349243,219.380356 453.411438,219.380356 457.070740,219.380356 
	C457.070740,215.034592 457.070740,210.761856 457.070923,205.991333 
z"/>
<path fill="#3F3F3C" opacity="1.000000" stroke="none" 
	d="
M180.587769,258.869995 
	C180.587875,261.330078 180.587875,263.308075 180.587875,265.658905 
	C177.117676,265.658905 173.932938,265.658905 170.487717,265.658905 
	C170.487717,239.022018 170.487717,212.492783 170.487717,185.733185 
	C177.167755,185.733185 183.620178,185.441498 190.030670,185.834183 
	C194.414093,186.102692 197.241806,189.110809 198.467285,193.283142 
	C201.393036,203.244171 201.404144,213.335678 198.694214,223.284348 
	C197.334183,228.277283 193.823273,231.514893 188.199661,231.674438 
	C185.893631,231.739868 183.590668,231.912323 180.587662,232.073608 
	C180.587662,240.907455 180.587662,249.647644 180.587769,258.869995 
M180.587891,199.519882 
	C180.587891,207.415024 180.587891,215.310165 180.587891,223.101669 
	C188.866348,224.356827 190.173111,223.574554 190.757782,216.198502 
	C191.148880,211.264435 191.098831,206.262939 190.819290,201.315750 
	C190.391647,193.747467 188.833603,192.737350 180.586761,194.266174 
	C180.586761,195.621902 180.586761,197.071243 180.587891,199.519882 
z"/>
<path fill="#393936" opacity="1.000000" stroke="none" 
	d="
M123.160744,243.989548 
	C122.510452,248.596359 122.225006,253.292633 121.122360,257.788513 
	C119.559479,264.161011 115.489845,266.999329 109.199265,266.951111 
	C102.372208,266.898773 98.582977,264.143768 97.009354,257.587219 
	C96.160095,254.048752 95.455269,250.379166 95.413383,246.760315 
	C95.243828,232.111862 95.250191,217.458710 95.444687,202.810669 
	C95.490433,199.365631 96.187012,195.833267 97.177284,192.518234 
	C98.851692,186.913086 103.072464,184.356934 109.441628,184.470901 
	C115.674561,184.582413 119.402443,187.040833 120.928284,192.814453 
	C121.981140,196.798325 122.294586,200.977600 122.447060,205.522491 
	C119.315933,205.975449 116.676201,205.975449 113.800240,205.975449 
	C113.494286,203.045700 113.610504,200.292435 112.819504,197.830658 
	C112.207504,195.925980 110.459747,194.386215 109.216896,192.684235 
	C107.831314,194.430634 105.269341,196.158737 105.241859,197.926254 
	C104.962692,215.880051 104.993546,233.841919 105.283073,251.795975 
	C105.310516,253.497803 107.686157,255.161758 108.971634,256.843292 
	C110.318451,255.036514 112.314392,253.405304 112.861595,251.382248 
	C113.705467,248.262390 113.557014,244.874100 113.869179,241.122757 
	C117.095947,241.122757 119.902428,241.122757 122.708908,241.122757 
	C122.810516,241.542313 122.912132,241.961884 123.022827,242.940491 
	C123.074860,243.662888 123.117798,243.826218 123.160744,243.989548 
z"/>
<path fill="#393836" opacity="1.000000" stroke="none" 
	d="
M419.175415,184.800995 
	C424.259186,185.668640 426.826843,188.860825 427.929688,193.104660 
	C428.962799,197.080261 429.371094,201.218231 430.121002,205.681244 
	C426.729919,205.681244 423.815552,205.681244 420.508057,205.681244 
	C420.284698,203.130661 420.527893,200.357803 419.682922,197.970001 
	C418.974365,195.967468 416.996246,194.414154 415.580261,192.661926 
	C414.381134,194.423187 412.401764,196.074402 412.134796,197.967133 
	C411.440338,202.890732 411.275208,207.921417 411.298981,212.907455 
	C411.357788,225.222015 411.626892,237.535751 411.853760,249.849045 
	C411.878021,251.166382 411.819580,252.697495 412.448303,253.737091 
	C413.213928,255.003128 414.639923,256.617523 415.830231,256.659332 
	C416.923431,256.697723 418.809021,255.010040 419.079010,253.800201 
	C419.938477,249.948380 420.207642,245.964844 420.752563,241.655212 
	C423.523254,241.655212 426.413605,241.655212 430.592468,241.655212 
	C429.360016,248.075668 428.567871,254.437073 426.831329,260.529266 
	C425.486237,265.248169 421.192078,266.803711 416.541412,266.918823 
	C411.586609,267.041443 407.226532,265.751495 405.025146,260.792450 
	C404.094147,258.695129 403.105164,256.384277 403.082092,254.160721 
	C402.885437,235.214096 402.326080,216.241837 403.090393,197.326340 
	C403.507660,187.000198 408.507111,183.933090 419.175415,184.800995 
z"/>
<path fill="#3A3938" opacity="1.000000" stroke="none" 
	d="
M385.972046,266.012695 
	C381.343811,266.012634 377.205719,266.012634 372.884338,266.012634 
	C372.884338,239.092468 372.884338,212.525620 372.884338,185.702576 
	C380.540955,185.702576 387.944580,185.702576 395.597229,185.702576 
	C395.597229,188.216827 395.597229,190.485336 395.597229,193.324219 
	C391.550598,193.324219 387.495850,193.324219 383.138580,193.324219 
	C383.138580,202.297089 383.138580,210.706360 383.138580,219.615891 
	C386.680054,219.615891 390.093964,219.615891 393.681030,219.615891 
	C393.681030,222.407700 393.681030,224.702927 393.681030,227.591644 
	C390.231903,227.591644 386.848206,227.591644 383.155396,227.591644 
	C383.155396,237.233749 383.155396,246.291718 383.155396,255.877502 
	C387.254669,255.877502 391.326691,255.877502 395.614899,255.877502 
	C395.614899,259.334167 395.614899,262.277435 395.614899,266.012726 
	C392.619049,266.012726 389.540588,266.012726 385.972046,266.012695 
z"/>
<path fill="#454542" opacity="1.000000" stroke="none" 
	d="
M338.538422,185.403946 
	C348.093811,185.392731 357.202118,185.392731 366.532837,185.392731 
	C366.532837,188.650650 366.532837,191.263077 366.532837,194.439087 
	C363.432220,194.439087 360.356903,194.439087 356.698303,194.439087 
	C356.698303,218.534424 356.698303,242.078323 356.698303,265.808807 
	C353.029266,265.808807 349.948181,265.808807 346.432556,265.808807 
	C346.432556,242.159027 346.432556,218.742203 346.432556,194.928711 
	C342.967560,194.722794 339.902924,194.540680 335.484955,194.278137 
	C336.449677,190.997650 337.270508,188.206406 338.538422,185.403946 
z"/>
<path fill="#F5F3DD" opacity="1.000000" stroke="none" 
	d="
M123.123894,241.092010 
	C119.902428,241.122757 117.095947,241.122757 113.869179,241.122757 
	C113.557014,244.874100 113.705467,248.262390 112.861595,251.382248 
	C112.314392,253.405304 110.318451,255.036514 108.971634,256.843292 
	C107.686157,255.161758 105.310516,253.497803 105.283073,251.795975 
	C104.993546,233.841919 104.962692,215.880051 105.241859,197.926254 
	C105.269341,196.158737 107.831314,194.430634 109.216896,192.684235 
	C110.459747,194.386215 112.207504,195.925980 112.819504,197.830658 
	C113.610504,200.292435 113.494286,203.045700 113.800240,205.975449 
	C116.676201,205.975449 119.315933,205.975449 122.396233,205.956390 
	C124.223984,208.639053 126.447044,211.228119 126.829430,214.065277 
	C127.704285,220.556534 127.649559,227.170929 128.063690,233.729553 
	C128.108093,234.432617 128.755447,235.097610 129.500000,235.887268 
	C129.930954,236.443359 129.985046,236.892426 129.957977,237.673416 
	C127.764168,239.023972 125.651520,240.042618 123.123894,241.092010 
z"/>
<path fill="#373734" opacity="1.000000" stroke="none" 
	d="
M257.817169,186.569458 
	C257.913666,213.110367 257.913666,239.207947 257.913666,265.656036 
	C254.676514,265.656036 251.617325,265.656036 248.231110,265.656036 
	C248.231110,239.242828 248.231110,212.714706 248.231110,185.336395 
	C251.385300,185.598892 254.552979,185.862503 257.817169,186.569458 
z"/>
<path fill="#45433C" opacity="1.000000" stroke="none" 
	d="
M208.963074,294.148254 
	C208.962936,292.202362 208.962936,290.724518 208.962936,289.246704 
	C209.446350,288.976685 209.929779,288.706665 210.413193,288.436646 
	C211.778473,290.539276 213.143753,292.641937 214.643066,294.950989 
	C215.124557,292.700012 215.577744,290.581329 216.030930,288.462646 
	C216.552612,288.556580 217.074310,288.650513 217.595993,288.744446 
	C217.595993,293.723053 217.595993,298.701630 217.595993,305.509674 
	C215.375320,302.732849 213.970779,300.976532 212.556000,299.207428 
	C211.881790,300.905914 211.213852,302.588623 210.545914,304.271332 
	C210.018341,304.137726 209.490784,304.004120 208.963211,303.870514 
	C208.963211,300.785767 208.963211,297.701050 208.963074,294.148254 
z"/>
<path fill="#45433C" opacity="1.000000" stroke="none" 
	d="
M182.964020,301.646057 
	C182.965149,297.124390 182.965149,293.064178 182.965149,289.003937 
	C183.484482,288.808044 184.003815,288.612152 184.523163,288.416260 
	C185.839920,290.517212 187.156677,292.618134 188.564575,294.864471 
	C189.132629,292.668365 189.678772,290.556946 190.224930,288.445526 
	C190.750427,288.580780 191.275940,288.716003 191.801453,288.851227 
	C191.801453,293.770386 191.801453,298.689575 191.801453,303.608734 
	C191.465469,303.882446 191.129501,304.156158 190.793518,304.429871 
	C189.259033,302.426849 187.724548,300.423798 186.340118,298.616638 
	C185.769257,300.308502 185.154739,302.129730 184.540222,303.950989 
	C184.014450,303.336487 183.488663,302.721985 182.964020,301.646057 
z"/>
<path fill="#4D4B41" opacity="1.000000" stroke="none" 
	d="
M370.097595,289.142822 
	C374.101318,292.648926 375.054596,297.181427 372.973877,301.254669 
	C371.457733,304.222687 366.108063,305.581665 364.683960,302.846527 
	C363.108276,299.820129 362.624908,295.744415 363.053925,292.298523 
	C363.434814,289.239075 366.566254,288.240570 370.097595,289.142822 
M370.234802,300.313599 
	C370.433258,298.097870 370.988403,295.829437 370.672150,293.689789 
	C370.525055,292.694824 368.685760,291.950012 367.613586,291.091797 
	C366.753601,293.531464 365.282654,295.952820 365.208923,298.416016 
	C365.138092,300.781525 366.616577,303.001404 370.234802,300.313599 
z"/>
<path fill="#4D4B41" opacity="1.000000" stroke="none" 
	d="
M243.960510,303.220612 
	C240.293137,304.657349 237.282394,304.584747 235.825775,300.740692 
	C234.404556,296.990082 234.149292,293.139069 237.294754,290.062042 
	C239.934097,287.480103 245.183258,288.628876 245.712738,292.290283 
	C246.208282,295.717041 244.838806,299.413452 243.960510,303.220612 
M239.099380,301.029297 
	C240.479431,300.739777 242.942520,300.667023 243.051407,300.123077 
	C243.513916,297.812347 243.486588,295.334473 243.175735,292.978638 
	C243.077621,292.235138 241.513168,291.150421 240.665100,291.190063 
	C239.806885,291.230225 238.364777,292.413849 238.297394,293.193329 
	C238.090515,295.585907 238.419998,298.024872 239.099380,301.029297 
z"/>
<path fill="#45433C" opacity="1.000000" stroke="none" 
	d="
M292.602051,296.462433 
	C293.702087,293.620331 294.670166,291.163818 295.638306,288.707336 
	C296.660431,291.104645 297.904816,293.435944 298.642365,295.917847 
	C299.382568,298.408905 299.617615,301.050079 300.037018,303.416565 
	C297.164642,303.274353 294.525909,303.143707 291.190460,302.978577 
	C291.506866,301.462738 291.988495,299.155396 292.602051,296.462433 
z"/>
<path fill="#45433C" opacity="1.000000" stroke="none" 
	d="
M270.706299,290.929321 
	C271.515320,289.823334 272.247131,289.087494 272.978973,288.351654 
	C273.320740,288.583740 273.662537,288.815826 274.004303,289.047913 
	C272.923126,293.466827 271.909698,297.904633 270.691650,302.285522 
	C270.496399,302.987732 269.379822,303.879791 268.700653,303.870178 
	C268.078827,303.861359 267.122253,302.848633 266.917328,302.110535 
	C265.738129,297.863617 264.738495,293.566803 263.678009,289.286896 
	C264.237549,289.019745 264.797089,288.752594 265.356628,288.485443 
	C266.460205,291.016571 267.563782,293.547699 268.937531,296.698486 
	C269.595764,294.597565 270.112427,292.948486 270.706299,290.929321 
z"/>
<path fill="#373734" opacity="1.000000" stroke="none" 
	d="
M393.002502,302.034119 
	C392.323547,302.653900 391.655670,302.846588 390.987762,303.039307 
	C390.987762,298.349152 390.987762,293.659027 390.987762,288.968872 
	C391.402191,288.892273 391.816620,288.815704 392.231018,288.739105 
	C393.596771,291.135742 394.962524,293.532349 396.375061,296.011017 
	C398.223053,293.789551 394.969360,289.890442 399.599548,288.485260 
	C399.599548,293.811951 399.599548,298.703003 399.599548,303.594055 
	C399.243744,303.873749 398.887939,304.153412 398.532104,304.433105 
	C396.960846,302.146515 395.389557,299.859924 393.441833,297.025574 
	C393.271454,298.848328 393.142517,300.227692 393.002502,302.034119 
z"/>
<path fill="#4D4B41" opacity="1.000000" stroke="none" 
	d="
M319.941650,297.136047 
	C319.379333,294.332642 318.817139,291.985992 318.097870,288.983795 
	C319.822388,288.893799 322.417999,288.758362 324.151703,288.667877 
	C323.326874,294.178009 322.580353,299.164978 321.833801,304.151917 
	C321.304047,304.118530 320.774292,304.085175 320.244507,304.051788 
	C320.143616,301.898804 320.042725,299.745819 319.941650,297.136047 
z"/>
<path fill="#4D4B41" opacity="1.000000" stroke="none" 
	d="
M342.090454,296.084290 
	C342.395844,293.272461 342.699890,290.916168 343.003906,288.559845 
	C343.615326,288.615295 344.226715,288.670746 344.838135,288.726227 
	C344.838135,293.723663 344.838135,298.721130 344.838135,303.752167 
	C342.253540,303.001465 342.253540,303.001465 342.090454,296.084290 
z"/>
<path fill="#DDDCCF" opacity="1.000000" stroke="none" 
	d="
M259.013367,119.933487 
	C262.521759,124.466904 265.750000,128.943069 268.558044,132.836563 
	C261.626587,133.389313 257.259247,128.804779 258.370911,120.324486 
	C258.353577,119.912079 258.543365,119.894157 259.013367,119.933487 
z"/>
<path fill="#3A3A37" opacity="1.000000" stroke="none" 
	d="
M166.017822,301.689026 
	C165.091202,302.521729 164.166885,302.886169 163.242584,303.250610 
	C163.242584,298.401550 163.242584,293.552490 163.242584,288.703430 
	C164.043457,288.690857 164.844345,288.678284 165.645218,288.665741 
	C165.770203,292.850739 165.895172,297.035767 166.017822,301.689026 
z"/>
<path fill="#F5F3DD" opacity="1.000000" stroke="none" 
	d="
M123.295677,243.893692 
	C123.117798,243.826218 123.074860,243.662888 123.098862,243.255264 
	C123.526680,243.203461 123.614944,243.465744 123.295677,243.893692 
z"/>
<path fill="#EEECDC" opacity="1.000000" stroke="none" 
	d="
M270.985901,107.248993 
	C266.475891,115.322067 267.691132,122.323639 274.320129,128.759262 
	C266.899200,127.840736 261.892609,121.063858 262.316803,113.314957 
	C262.629578,107.601517 265.930054,104.706169 272.710846,104.382217 
	C272.155487,105.302368 271.664307,106.116158 270.985901,107.248993 
z"/>
<path fill="#F6F3E1" opacity="1.000000" stroke="none" 
	d="
M221.674805,219.693176 
	C220.068863,218.798218 217.907974,217.931961 217.873459,216.987976 
	C217.595383,209.383148 217.717667,201.763687 217.717667,194.233810 
	C226.426880,192.603485 228.043243,193.780075 228.235687,201.903564 
	C228.330032,205.886017 228.216064,209.885651 227.948227,213.860779 
	C227.712265,217.363022 226.282837,219.984863 221.674805,219.693176 
z"/>
<path fill="#F2F0DE" opacity="1.000000" stroke="none" 
	d="
M150.176834,226.933914 
	C150.177109,229.714584 150.177109,232.006042 150.177109,234.575989 
	C146.809601,234.575989 143.880493,234.575989 140.159225,234.575989 
	C140.159225,228.280197 140.083115,221.881851 140.182434,215.486221 
	C140.267410,210.014023 140.421829,204.535706 140.806183,199.078445 
	C140.998154,196.352600 141.061264,193.044281 144.983063,192.815521 
	C149.430038,192.556122 149.546036,196.365448 149.671921,199.068588 
	C150.096329,208.182022 150.045578,217.317596 150.176834,226.933914 
z"/>
<path fill="#F5F2E0" opacity="1.000000" stroke="none" 
	d="
M180.587326,199.020233 
	C180.586761,197.071243 180.586761,195.621902 180.586761,194.266174 
	C188.833603,192.737350 190.391647,193.747467 190.819290,201.315750 
	C191.098831,206.262939 191.148880,211.264435 190.757782,216.198502 
	C190.173111,223.574554 188.866348,224.356827 180.587891,223.101669 
	C180.587891,215.310165 180.587891,207.415024 180.587326,199.020233 
z"/>
<path fill="#F6F3E1" opacity="1.000000" stroke="none" 
	d="
M369.991272,300.629639 
	C366.616577,303.001404 365.138092,300.781525 365.208923,298.416016 
	C365.282654,295.952820 366.753601,293.531464 367.613586,291.091797 
	C368.685760,291.950012 370.525055,292.694824 370.672150,293.689789 
	C370.988403,295.829437 370.433258,298.097870 369.991272,300.629639 
z"/>
<path fill="#EEECDC" opacity="1.000000" stroke="none" 
	d="
M238.820175,300.737549 
	C238.419998,298.024872 238.090515,295.585907 238.297394,293.193329 
	C238.364777,292.413849 239.806885,291.230225 240.665100,291.190063 
	C241.513168,291.150421 243.077621,292.235138 243.175735,292.978638 
	C243.486588,295.334473 243.513916,297.812347 243.051407,300.123077 
	C242.942520,300.667023 240.479431,300.739777 238.820175,300.737549 
z"/>
</svg>